<mxfile host="app.diagrams.net" modified="2024-05-11T21:32:25.459Z" agent="Mozilla/5.0 (Windows NT 10.0; Win64; x64) AppleWebKit/537.36 (KHTML, like Gecko) Chrome/124.0.0.0 Safari/537.36" etag="icV02FIX-fvX0td5RWUt" version="24.4.0" type="device">
  <diagram id="C5RBs43oDa-KdzZeNtuy" name="Page-1">
    <mxGraphModel dx="1562" dy="810" grid="1" gridSize="10" guides="1" tooltips="1" connect="1" arrows="1" fold="1" page="1" pageScale="1" pageWidth="827" pageHeight="1169" math="0" shadow="0">
      <root>
        <mxCell id="WIyWlLk6GJQsqaUBKTNV-0" />
        <mxCell id="WIyWlLk6GJQsqaUBKTNV-1" parent="WIyWlLk6GJQsqaUBKTNV-0" />
        <mxCell id="sXNXOVVMwxK3gzHS42gI-0" value="Game Master&lt;div&gt;&lt;br&gt;&lt;/div&gt;" style="shape=umlActor;verticalLabelPosition=bottom;verticalAlign=top;html=1;whiteSpace=wrap;" vertex="1" parent="WIyWlLk6GJQsqaUBKTNV-1">
          <mxGeometry x="70" y="90" width="70" height="140" as="geometry" />
        </mxCell>
        <mxCell id="sXNXOVVMwxK3gzHS42gI-4" value="Frontend" style="swimlane;fontStyle=1;align=center;verticalAlign=top;childLayout=stackLayout;horizontal=1;startSize=26;horizontalStack=0;resizeParent=1;resizeParentMax=0;resizeLast=0;collapsible=1;marginBottom=0;whiteSpace=wrap;html=1;" vertex="1" parent="WIyWlLk6GJQsqaUBKTNV-1">
          <mxGeometry x="240" y="80" width="240" height="138" as="geometry" />
        </mxCell>
        <mxCell id="sXNXOVVMwxK3gzHS42gI-5" value="roll_configs" style="text;strokeColor=none;fillColor=none;align=left;verticalAlign=top;spacingLeft=4;spacingRight=4;overflow=hidden;rotatable=0;points=[[0,0.5],[1,0.5]];portConstraint=eastwest;whiteSpace=wrap;html=1;" vertex="1" parent="sXNXOVVMwxK3gzHS42gI-4">
          <mxGeometry y="26" width="240" height="26" as="geometry" />
        </mxCell>
        <mxCell id="sXNXOVVMwxK3gzHS42gI-6" value="" style="line;strokeWidth=1;fillColor=none;align=left;verticalAlign=middle;spacingTop=-1;spacingLeft=3;spacingRight=3;rotatable=0;labelPosition=right;points=[];portConstraint=eastwest;strokeColor=inherit;" vertex="1" parent="sXNXOVVMwxK3gzHS42gI-4">
          <mxGeometry y="52" width="240" height="8" as="geometry" />
        </mxCell>
        <mxCell id="sXNXOVVMwxK3gzHS42gI-7" value="save_roll_config()" style="text;strokeColor=none;fillColor=none;align=left;verticalAlign=top;spacingLeft=4;spacingRight=4;overflow=hidden;rotatable=0;points=[[0,0.5],[1,0.5]];portConstraint=eastwest;whiteSpace=wrap;html=1;" vertex="1" parent="sXNXOVVMwxK3gzHS42gI-4">
          <mxGeometry y="60" width="240" height="26" as="geometry" />
        </mxCell>
        <mxCell id="sXNXOVVMwxK3gzHS42gI-13" value="load_roll_configs()" style="text;strokeColor=none;fillColor=none;align=left;verticalAlign=top;spacingLeft=4;spacingRight=4;overflow=hidden;rotatable=0;points=[[0,0.5],[1,0.5]];portConstraint=eastwest;whiteSpace=wrap;html=1;" vertex="1" parent="sXNXOVVMwxK3gzHS42gI-4">
          <mxGeometry y="86" width="240" height="26" as="geometry" />
        </mxCell>
        <mxCell id="sXNXOVVMwxK3gzHS42gI-14" value="get_roll_results()" style="text;strokeColor=none;fillColor=none;align=left;verticalAlign=top;spacingLeft=4;spacingRight=4;overflow=hidden;rotatable=0;points=[[0,0.5],[1,0.5]];portConstraint=eastwest;whiteSpace=wrap;html=1;" vertex="1" parent="sXNXOVVMwxK3gzHS42gI-4">
          <mxGeometry y="112" width="240" height="26" as="geometry" />
        </mxCell>
        <mxCell id="sXNXOVVMwxK3gzHS42gI-9" value="Backend" style="swimlane;fontStyle=1;align=center;verticalAlign=top;childLayout=stackLayout;horizontal=1;startSize=26;horizontalStack=0;resizeParent=1;resizeParentMax=0;resizeLast=0;collapsible=1;marginBottom=0;whiteSpace=wrap;html=1;" vertex="1" parent="WIyWlLk6GJQsqaUBKTNV-1">
          <mxGeometry x="678" y="70" width="282" height="158" as="geometry" />
        </mxCell>
        <mxCell id="sXNXOVVMwxK3gzHS42gI-10" value="&lt;div&gt;profile&lt;/div&gt;roll_configs" style="text;strokeColor=none;fillColor=none;align=left;verticalAlign=top;spacingLeft=4;spacingRight=4;overflow=hidden;rotatable=0;points=[[0,0.5],[1,0.5]];portConstraint=eastwest;whiteSpace=wrap;html=1;" vertex="1" parent="sXNXOVVMwxK3gzHS42gI-9">
          <mxGeometry y="26" width="282" height="44" as="geometry" />
        </mxCell>
        <mxCell id="sXNXOVVMwxK3gzHS42gI-11" value="" style="line;strokeWidth=1;fillColor=none;align=left;verticalAlign=middle;spacingTop=-1;spacingLeft=3;spacingRight=3;rotatable=0;labelPosition=right;points=[];portConstraint=eastwest;strokeColor=inherit;" vertex="1" parent="sXNXOVVMwxK3gzHS42gI-9">
          <mxGeometry y="70" width="282" height="8" as="geometry" />
        </mxCell>
        <mxCell id="sXNXOVVMwxK3gzHS42gI-12" value="add_roll_config()" style="text;strokeColor=none;fillColor=none;align=left;verticalAlign=top;spacingLeft=4;spacingRight=4;overflow=hidden;rotatable=0;points=[[0,0.5],[1,0.5]];portConstraint=eastwest;whiteSpace=wrap;html=1;" vertex="1" parent="sXNXOVVMwxK3gzHS42gI-9">
          <mxGeometry y="78" width="282" height="26" as="geometry" />
        </mxCell>
        <mxCell id="sXNXOVVMwxK3gzHS42gI-16" value="get_roll_configs()" style="text;strokeColor=none;fillColor=none;align=left;verticalAlign=top;spacingLeft=4;spacingRight=4;overflow=hidden;rotatable=0;points=[[0,0.5],[1,0.5]];portConstraint=eastwest;whiteSpace=wrap;html=1;" vertex="1" parent="sXNXOVVMwxK3gzHS42gI-9">
          <mxGeometry y="104" width="282" height="26" as="geometry" />
        </mxCell>
        <mxCell id="sXNXOVVMwxK3gzHS42gI-17" value="get_roll_results()" style="text;strokeColor=none;fillColor=none;align=left;verticalAlign=top;spacingLeft=4;spacingRight=4;overflow=hidden;rotatable=0;points=[[0,0.5],[1,0.5]];portConstraint=eastwest;whiteSpace=wrap;html=1;" vertex="1" parent="sXNXOVVMwxK3gzHS42gI-9">
          <mxGeometry y="130" width="282" height="28" as="geometry" />
        </mxCell>
        <mxCell id="sXNXOVVMwxK3gzHS42gI-15" value="Enters rolls&lt;div&gt;has fun&lt;/div&gt;" style="edgeStyle=orthogonalEdgeStyle;rounded=0;orthogonalLoop=1;jettySize=auto;html=1;entryX=0;entryY=0.769;entryDx=0;entryDy=0;entryPerimeter=0;startArrow=classic;startFill=1;" edge="1" parent="WIyWlLk6GJQsqaUBKTNV-1" source="sXNXOVVMwxK3gzHS42gI-0" target="sXNXOVVMwxK3gzHS42gI-7">
          <mxGeometry relative="1" as="geometry" />
        </mxCell>
        <mxCell id="sXNXOVVMwxK3gzHS42gI-18" style="edgeStyle=orthogonalEdgeStyle;rounded=0;orthogonalLoop=1;jettySize=auto;html=1;entryX=0;entryY=0.5;entryDx=0;entryDy=0;" edge="1" parent="WIyWlLk6GJQsqaUBKTNV-1" source="sXNXOVVMwxK3gzHS42gI-7" target="sXNXOVVMwxK3gzHS42gI-12">
          <mxGeometry relative="1" as="geometry" />
        </mxCell>
        <mxCell id="sXNXOVVMwxK3gzHS42gI-19" style="edgeStyle=orthogonalEdgeStyle;rounded=0;orthogonalLoop=1;jettySize=auto;html=1;exitX=0;exitY=0.5;exitDx=0;exitDy=0;entryX=1;entryY=0.5;entryDx=0;entryDy=0;" edge="1" parent="WIyWlLk6GJQsqaUBKTNV-1" source="sXNXOVVMwxK3gzHS42gI-16" target="sXNXOVVMwxK3gzHS42gI-13">
          <mxGeometry relative="1" as="geometry" />
        </mxCell>
        <mxCell id="sXNXOVVMwxK3gzHS42gI-20" style="edgeStyle=orthogonalEdgeStyle;rounded=0;orthogonalLoop=1;jettySize=auto;html=1;exitX=0;exitY=0.5;exitDx=0;exitDy=0;entryX=1;entryY=0.5;entryDx=0;entryDy=0;" edge="1" parent="WIyWlLk6GJQsqaUBKTNV-1" source="sXNXOVVMwxK3gzHS42gI-17" target="sXNXOVVMwxK3gzHS42gI-14">
          <mxGeometry relative="1" as="geometry" />
        </mxCell>
        <mxCell id="sXNXOVVMwxK3gzHS42gI-22" value="Roll" style="swimlane;fontStyle=1;align=center;verticalAlign=top;childLayout=stackLayout;horizontal=1;startSize=26;horizontalStack=0;resizeParent=1;resizeParentMax=0;resizeLast=0;collapsible=1;marginBottom=0;whiteSpace=wrap;html=1;" vertex="1" parent="WIyWlLk6GJQsqaUBKTNV-1">
          <mxGeometry x="390" y="480" width="240" height="310" as="geometry" />
        </mxCell>
        <mxCell id="sXNXOVVMwxK3gzHS42gI-23" value="id&lt;div&gt;dice&lt;div&gt;modifiers&lt;/div&gt;&lt;/div&gt;&lt;div&gt;roll_result&lt;/div&gt;&lt;div&gt;final_value&lt;/div&gt;&lt;div&gt;&lt;br&gt;&lt;/div&gt;" style="text;strokeColor=none;fillColor=none;align=left;verticalAlign=top;spacingLeft=4;spacingRight=4;overflow=hidden;rotatable=0;points=[[0,0.5],[1,0.5]];portConstraint=eastwest;whiteSpace=wrap;html=1;" vertex="1" parent="sXNXOVVMwxK3gzHS42gI-22">
          <mxGeometry y="26" width="240" height="94" as="geometry" />
        </mxCell>
        <mxCell id="sXNXOVVMwxK3gzHS42gI-24" value="" style="line;strokeWidth=1;fillColor=none;align=left;verticalAlign=middle;spacingTop=-1;spacingLeft=3;spacingRight=3;rotatable=0;labelPosition=right;points=[];portConstraint=eastwest;strokeColor=inherit;" vertex="1" parent="sXNXOVVMwxK3gzHS42gI-22">
          <mxGeometry y="120" width="240" height="8" as="geometry" />
        </mxCell>
        <mxCell id="sXNXOVVMwxK3gzHS42gI-27" value="&lt;div&gt;create_dice_from_dice_configs()&lt;/div&gt;add_die()&lt;div&gt;remove_die()&lt;/div&gt;&lt;div&gt;edit_die()&lt;br&gt;&lt;div&gt;add_modifer()&lt;/div&gt;&lt;/div&gt;&lt;div&gt;remove_modifier()&lt;/div&gt;&lt;div&gt;edit_modifier()&lt;/div&gt;&lt;div&gt;roll()&lt;/div&gt;&lt;div&gt;reset()&lt;/div&gt;&lt;div&gt;get_roll_result()&lt;/div&gt;&lt;div&gt;get_final_value()&lt;/div&gt;" style="text;strokeColor=none;fillColor=none;align=left;verticalAlign=top;spacingLeft=4;spacingRight=4;overflow=hidden;rotatable=0;points=[[0,0.5],[1,0.5]];portConstraint=eastwest;whiteSpace=wrap;html=1;" vertex="1" parent="sXNXOVVMwxK3gzHS42gI-22">
          <mxGeometry y="128" width="240" height="182" as="geometry" />
        </mxCell>
        <mxCell id="sXNXOVVMwxK3gzHS42gI-28" value="Die" style="swimlane;fontStyle=1;align=center;verticalAlign=top;childLayout=stackLayout;horizontal=1;startSize=26;horizontalStack=0;resizeParent=1;resizeParentMax=0;resizeLast=0;collapsible=1;marginBottom=0;whiteSpace=wrap;html=1;" vertex="1" parent="WIyWlLk6GJQsqaUBKTNV-1">
          <mxGeometry x="770" y="390" width="240" height="230" as="geometry" />
        </mxCell>
        <mxCell id="sXNXOVVMwxK3gzHS42gI-29" value="faces&lt;div&gt;advantage&lt;/div&gt;&lt;div&gt;reroll_rules&lt;/div&gt;&lt;div&gt;die_result&lt;/div&gt;" style="text;strokeColor=none;fillColor=none;align=left;verticalAlign=top;spacingLeft=4;spacingRight=4;overflow=hidden;rotatable=0;points=[[0,0.5],[1,0.5]];portConstraint=eastwest;whiteSpace=wrap;html=1;" vertex="1" parent="sXNXOVVMwxK3gzHS42gI-28">
          <mxGeometry y="26" width="240" height="74" as="geometry" />
        </mxCell>
        <mxCell id="sXNXOVVMwxK3gzHS42gI-30" value="" style="line;strokeWidth=1;fillColor=none;align=left;verticalAlign=middle;spacingTop=-1;spacingLeft=3;spacingRight=3;rotatable=0;labelPosition=right;points=[];portConstraint=eastwest;strokeColor=inherit;" vertex="1" parent="sXNXOVVMwxK3gzHS42gI-28">
          <mxGeometry y="100" width="240" height="8" as="geometry" />
        </mxCell>
        <mxCell id="sXNXOVVMwxK3gzHS42gI-31" value="set_faces()&lt;div&gt;set_advantage()&lt;/div&gt;&lt;div&gt;add_reroll_rule()&lt;/div&gt;&lt;div&gt;remove_reroll_rule()&lt;/div&gt;&lt;div&gt;roll()&lt;/div&gt;&lt;div&gt;reset()&lt;/div&gt;&lt;div&gt;get_die_result()&lt;/div&gt;" style="text;strokeColor=none;fillColor=none;align=left;verticalAlign=top;spacingLeft=4;spacingRight=4;overflow=hidden;rotatable=0;points=[[0,0.5],[1,0.5]];portConstraint=eastwest;whiteSpace=wrap;html=1;" vertex="1" parent="sXNXOVVMwxK3gzHS42gI-28">
          <mxGeometry y="108" width="240" height="122" as="geometry" />
        </mxCell>
        <mxCell id="sXNXOVVMwxK3gzHS42gI-32" style="edgeStyle=orthogonalEdgeStyle;rounded=0;orthogonalLoop=1;jettySize=auto;html=1;exitX=0;exitY=0.5;exitDx=0;exitDy=0;entryX=1;entryY=0.5;entryDx=0;entryDy=0;" edge="1" parent="WIyWlLk6GJQsqaUBKTNV-1" source="sXNXOVVMwxK3gzHS42gI-29" target="sXNXOVVMwxK3gzHS42gI-23">
          <mxGeometry relative="1" as="geometry" />
        </mxCell>
        <mxCell id="sXNXOVVMwxK3gzHS42gI-33" value="Modifier" style="swimlane;fontStyle=1;align=center;verticalAlign=top;childLayout=stackLayout;horizontal=1;startSize=26;horizontalStack=0;resizeParent=1;resizeParentMax=0;resizeLast=0;collapsible=1;marginBottom=0;whiteSpace=wrap;html=1;" vertex="1" parent="WIyWlLk6GJQsqaUBKTNV-1">
          <mxGeometry x="770" y="650" width="240" height="130" as="geometry" />
        </mxCell>
        <mxCell id="sXNXOVVMwxK3gzHS42gI-34" value="value&lt;div&gt;sign&lt;/div&gt;" style="text;strokeColor=none;fillColor=none;align=left;verticalAlign=top;spacingLeft=4;spacingRight=4;overflow=hidden;rotatable=0;points=[[0,0.5],[1,0.5]];portConstraint=eastwest;whiteSpace=wrap;html=1;" vertex="1" parent="sXNXOVVMwxK3gzHS42gI-33">
          <mxGeometry y="26" width="240" height="44" as="geometry" />
        </mxCell>
        <mxCell id="sXNXOVVMwxK3gzHS42gI-35" value="" style="line;strokeWidth=1;fillColor=none;align=left;verticalAlign=middle;spacingTop=-1;spacingLeft=3;spacingRight=3;rotatable=0;labelPosition=right;points=[];portConstraint=eastwest;strokeColor=inherit;" vertex="1" parent="sXNXOVVMwxK3gzHS42gI-33">
          <mxGeometry y="70" width="240" height="8" as="geometry" />
        </mxCell>
        <mxCell id="sXNXOVVMwxK3gzHS42gI-36" value="&lt;div&gt;set_value()&lt;/div&gt;get_value()" style="text;strokeColor=none;fillColor=none;align=left;verticalAlign=top;spacingLeft=4;spacingRight=4;overflow=hidden;rotatable=0;points=[[0,0.5],[1,0.5]];portConstraint=eastwest;whiteSpace=wrap;html=1;" vertex="1" parent="sXNXOVVMwxK3gzHS42gI-33">
          <mxGeometry y="78" width="240" height="52" as="geometry" />
        </mxCell>
        <mxCell id="sXNXOVVMwxK3gzHS42gI-38" style="edgeStyle=orthogonalEdgeStyle;rounded=0;orthogonalLoop=1;jettySize=auto;html=1;entryX=1;entryY=0.5;entryDx=0;entryDy=0;" edge="1" parent="WIyWlLk6GJQsqaUBKTNV-1" source="sXNXOVVMwxK3gzHS42gI-35" target="sXNXOVVMwxK3gzHS42gI-23">
          <mxGeometry relative="1" as="geometry" />
        </mxCell>
        <mxCell id="sXNXOVVMwxK3gzHS42gI-39" value="RollResult" style="swimlane;fontStyle=1;align=center;verticalAlign=top;childLayout=stackLayout;horizontal=1;startSize=26;horizontalStack=0;resizeParent=1;resizeParentMax=0;resizeLast=0;collapsible=1;marginBottom=0;whiteSpace=wrap;html=1;" vertex="1" parent="WIyWlLk6GJQsqaUBKTNV-1">
          <mxGeometry x="60" y="680" width="220" height="150" as="geometry" />
        </mxCell>
        <mxCell id="sXNXOVVMwxK3gzHS42gI-40" value="&lt;div&gt;id&lt;/div&gt;dice_results&lt;div&gt;modifiers&lt;/div&gt;&lt;div&gt;total&lt;/div&gt;" style="text;strokeColor=none;fillColor=none;align=left;verticalAlign=top;spacingLeft=4;spacingRight=4;overflow=hidden;rotatable=0;points=[[0,0.5],[1,0.5]];portConstraint=eastwest;whiteSpace=wrap;html=1;" vertex="1" parent="sXNXOVVMwxK3gzHS42gI-39">
          <mxGeometry y="26" width="220" height="74" as="geometry" />
        </mxCell>
        <mxCell id="sXNXOVVMwxK3gzHS42gI-41" value="" style="line;strokeWidth=1;fillColor=none;align=left;verticalAlign=middle;spacingTop=-1;spacingLeft=3;spacingRight=3;rotatable=0;labelPosition=right;points=[];portConstraint=eastwest;strokeColor=inherit;" vertex="1" parent="sXNXOVVMwxK3gzHS42gI-39">
          <mxGeometry y="100" width="220" height="8" as="geometry" />
        </mxCell>
        <mxCell id="sXNXOVVMwxK3gzHS42gI-42" value="serialize()&lt;div&gt;deserialize()&lt;/div&gt;" style="text;strokeColor=none;fillColor=none;align=left;verticalAlign=top;spacingLeft=4;spacingRight=4;overflow=hidden;rotatable=0;points=[[0,0.5],[1,0.5]];portConstraint=eastwest;whiteSpace=wrap;html=1;" vertex="1" parent="sXNXOVVMwxK3gzHS42gI-39">
          <mxGeometry y="108" width="220" height="42" as="geometry" />
        </mxCell>
        <mxCell id="sXNXOVVMwxK3gzHS42gI-43" style="edgeStyle=orthogonalEdgeStyle;rounded=0;orthogonalLoop=1;jettySize=auto;html=1;exitX=0;exitY=0.5;exitDx=0;exitDy=0;entryX=1;entryY=0.5;entryDx=0;entryDy=0;" edge="1" parent="WIyWlLk6GJQsqaUBKTNV-1" source="sXNXOVVMwxK3gzHS42gI-23" target="sXNXOVVMwxK3gzHS42gI-39">
          <mxGeometry relative="1" as="geometry" />
        </mxCell>
        <mxCell id="sXNXOVVMwxK3gzHS42gI-49" style="edgeStyle=orthogonalEdgeStyle;rounded=0;orthogonalLoop=1;jettySize=auto;html=1;" edge="1" parent="WIyWlLk6GJQsqaUBKTNV-1" source="sXNXOVVMwxK3gzHS42gI-45" target="sXNXOVVMwxK3gzHS42gI-29">
          <mxGeometry relative="1" as="geometry" />
        </mxCell>
        <mxCell id="sXNXOVVMwxK3gzHS42gI-45" value="DieResult" style="swimlane;fontStyle=1;align=center;verticalAlign=top;childLayout=stackLayout;horizontal=1;startSize=26;horizontalStack=0;resizeParent=1;resizeParentMax=0;resizeLast=0;collapsible=1;marginBottom=0;whiteSpace=wrap;html=1;" vertex="1" parent="WIyWlLk6GJQsqaUBKTNV-1">
          <mxGeometry x="1040" y="383" width="240" height="140" as="geometry" />
        </mxCell>
        <mxCell id="sXNXOVVMwxK3gzHS42gI-46" value="roll_values&lt;div&gt;final_value&lt;/div&gt;" style="text;strokeColor=none;fillColor=none;align=left;verticalAlign=top;spacingLeft=4;spacingRight=4;overflow=hidden;rotatable=0;points=[[0,0.5],[1,0.5]];portConstraint=eastwest;whiteSpace=wrap;html=1;" vertex="1" parent="sXNXOVVMwxK3gzHS42gI-45">
          <mxGeometry y="26" width="240" height="54" as="geometry" />
        </mxCell>
        <mxCell id="sXNXOVVMwxK3gzHS42gI-47" value="" style="line;strokeWidth=1;fillColor=none;align=left;verticalAlign=middle;spacingTop=-1;spacingLeft=3;spacingRight=3;rotatable=0;labelPosition=right;points=[];portConstraint=eastwest;strokeColor=inherit;" vertex="1" parent="sXNXOVVMwxK3gzHS42gI-45">
          <mxGeometry y="80" width="240" height="8" as="geometry" />
        </mxCell>
        <mxCell id="sXNXOVVMwxK3gzHS42gI-48" value="get_roll_values()&lt;div&gt;get_final_value()&lt;/div&gt;" style="text;strokeColor=none;fillColor=none;align=left;verticalAlign=top;spacingLeft=4;spacingRight=4;overflow=hidden;rotatable=0;points=[[0,0.5],[1,0.5]];portConstraint=eastwest;whiteSpace=wrap;html=1;" vertex="1" parent="sXNXOVVMwxK3gzHS42gI-45">
          <mxGeometry y="88" width="240" height="52" as="geometry" />
        </mxCell>
        <mxCell id="sXNXOVVMwxK3gzHS42gI-50" value="RollConfig" style="swimlane;fontStyle=1;align=center;verticalAlign=top;childLayout=stackLayout;horizontal=1;startSize=26;horizontalStack=0;resizeParent=1;resizeParentMax=0;resizeLast=0;collapsible=1;marginBottom=0;whiteSpace=wrap;html=1;" vertex="1" parent="WIyWlLk6GJQsqaUBKTNV-1">
          <mxGeometry x="50" y="410" width="210" height="150" as="geometry" />
        </mxCell>
        <mxCell id="sXNXOVVMwxK3gzHS42gI-51" value="id&lt;div&gt;dice_configs&lt;/div&gt;&lt;div&gt;modifiers&lt;/div&gt;" style="text;strokeColor=none;fillColor=none;align=left;verticalAlign=top;spacingLeft=4;spacingRight=4;overflow=hidden;rotatable=0;points=[[0,0.5],[1,0.5]];portConstraint=eastwest;whiteSpace=wrap;html=1;" vertex="1" parent="sXNXOVVMwxK3gzHS42gI-50">
          <mxGeometry y="26" width="210" height="64" as="geometry" />
        </mxCell>
        <mxCell id="sXNXOVVMwxK3gzHS42gI-52" value="" style="line;strokeWidth=1;fillColor=none;align=left;verticalAlign=middle;spacingTop=-1;spacingLeft=3;spacingRight=3;rotatable=0;labelPosition=right;points=[];portConstraint=eastwest;strokeColor=inherit;" vertex="1" parent="sXNXOVVMwxK3gzHS42gI-50">
          <mxGeometry y="90" width="210" height="8" as="geometry" />
        </mxCell>
        <mxCell id="sXNXOVVMwxK3gzHS42gI-53" value="create_roll()&lt;div&gt;serialize()&lt;/div&gt;&lt;div&gt;deserialize()&lt;/div&gt;" style="text;strokeColor=none;fillColor=none;align=left;verticalAlign=top;spacingLeft=4;spacingRight=4;overflow=hidden;rotatable=0;points=[[0,0.5],[1,0.5]];portConstraint=eastwest;whiteSpace=wrap;html=1;" vertex="1" parent="sXNXOVVMwxK3gzHS42gI-50">
          <mxGeometry y="98" width="210" height="52" as="geometry" />
        </mxCell>
        <mxCell id="sXNXOVVMwxK3gzHS42gI-54" style="edgeStyle=orthogonalEdgeStyle;rounded=0;orthogonalLoop=1;jettySize=auto;html=1;entryX=0.01;entryY=0.298;entryDx=0;entryDy=0;entryPerimeter=0;" edge="1" parent="WIyWlLk6GJQsqaUBKTNV-1" source="sXNXOVVMwxK3gzHS42gI-51" target="sXNXOVVMwxK3gzHS42gI-23">
          <mxGeometry relative="1" as="geometry" />
        </mxCell>
        <mxCell id="sXNXOVVMwxK3gzHS42gI-55" style="edgeStyle=orthogonalEdgeStyle;rounded=0;orthogonalLoop=1;jettySize=auto;html=1;exitX=1;exitY=0.5;exitDx=0;exitDy=0;entryX=0;entryY=0.5;entryDx=0;entryDy=0;" edge="1" parent="WIyWlLk6GJQsqaUBKTNV-1" source="sXNXOVVMwxK3gzHS42gI-10" target="sXNXOVVMwxK3gzHS42gI-51">
          <mxGeometry relative="1" as="geometry">
            <Array as="points">
              <mxPoint x="1020" y="118" />
              <mxPoint x="1020" y="288" />
              <mxPoint x="30" y="288" />
              <mxPoint x="30" y="468" />
            </Array>
          </mxGeometry>
        </mxCell>
        <mxCell id="sXNXOVVMwxK3gzHS42gI-56" style="edgeStyle=orthogonalEdgeStyle;rounded=0;orthogonalLoop=1;jettySize=auto;html=1;entryX=0;entryY=0.5;entryDx=0;entryDy=0;exitX=1;exitY=0.5;exitDx=0;exitDy=0;" edge="1" parent="WIyWlLk6GJQsqaUBKTNV-1" source="sXNXOVVMwxK3gzHS42gI-17" target="sXNXOVVMwxK3gzHS42gI-40">
          <mxGeometry relative="1" as="geometry">
            <mxPoint x="880" y="250" as="sourcePoint" />
            <mxPoint x="30" y="743" as="targetPoint" />
            <Array as="points">
              <mxPoint x="990" y="214" />
              <mxPoint x="990" y="270" />
              <mxPoint x="10" y="270" />
              <mxPoint x="10" y="743" />
            </Array>
          </mxGeometry>
        </mxCell>
      </root>
    </mxGraphModel>
  </diagram>
</mxfile>
